# xmcd
#
# Track frame offsets: 
#        150
#        11662
#        25715
#        39330
#        48340
#        61465
#        71230
#        82287
#        94547
#        117697
#        126485
#        138362
#        149555
#        158762
#        172070
#        185897
#        197690
#        210182
#        220862
#        235315
#        246052
#        264552
#
# Disc length: 3690 seconds
#
# Revision: 0
# Processed by: cddbd v1.5.2PL0 Copyright (c) Steve Scherf et al.
# Submitted via: ExactAudioCopy v1.1
#
DISCID=4f0e6816
DTITLE=Bobby Moore and The Rhythm Aces - Searching For My Love
DYEAR=1990
DGENRE=R&B
TTITLE0=Searching For My Love
TTITLE1=Mr. Starlight
TTITLE2=Follow Me
TTITLE3=The Hamburger Song
TTITLE4=Hey, Mr. D.J.
TTITLE5=When I Get This Feeling
TTITLE6=We've Got That
TTITLE7=How Can You Do It, Baby
TTITLE8=Alone
TTITLE9=Jenny, Jenny
TTITLE10=I Will Never Trust Love Again
TTITLE11=Come Back Baby
TTITLE12=Try My Love Again
TTITLE13=I Won't Cry
TTITLE14=Reaching Out
TTITLE15=I Wanna Be Your Man
TTITLE16=Don't Make Me Cry
TTITLE17=Can't Get Away
TTITLE18=Wonderful Love Of My Man
TTITLE19=Do You Know Your Woman
TTITLE20=Mother Dear
TTITLE21=Give Me Your Love Right Now
EXTD=
EXTT0=
EXTT1=
EXTT2=
EXTT3=
EXTT4=
EXTT5=
EXTT6=
EXTT7=
EXTT8=
EXTT9=
EXTT10=
EXTT11=
EXTT12=
EXTT13=
EXTT14=
EXTT15=
EXTT16=
EXTT17=
EXTT18=
EXTT19=
EXTT20=
EXTT21=
PLAYORDER=
